<svg width="99" height="100" viewBox="0 0 99 100" fill="none" xmlns="http://www.w3.org/2000/svg">
<rect y="0.887451" width="98.5924" height="98.5924" rx="49.2962" fill="black"/>
<path fill-rule="evenodd" clip-rule="evenodd" d="M49.2928 43.5479C54.2588 43.5541 59.02 45.5295 62.5317 49.041C66.0433 52.5528 68.0186 57.3134 68.0248 62.28C68.026 63.0269 67.9808 63.773 67.8891 64.5144C66.8057 65.2695 65.6765 65.9565 64.5081 66.572C64.6511 65.2734 64.4913 63.9594 64.0411 62.7329C63.4843 61.2099 62.5265 59.8656 61.2691 58.8415C60.012 57.8173 58.5015 57.1515 56.8973 56.9145C54.1537 56.5356 51.3805 57.3627 49.2933 59.1828C47.2056 57.3626 44.432 56.5353 41.6882 56.9145C40.0842 57.1518 38.574 57.8178 37.3168 58.8418C36.0594 59.8658 35.1019 61.21 34.5451 62.7329C34.0921 63.9587 33.9321 65.2734 34.0781 66.572C32.9083 65.9551 31.777 65.2679 30.6903 64.5144C30.6042 63.7726 30.5613 63.0266 30.5613 62.28C30.5675 57.3139 32.5429 52.5528 36.0544 49.041C39.5659 45.5295 44.3268 43.5541 49.2934 43.5479H49.2928ZM39.1741 30.0689C39.1741 28.0676 39.7674 26.1113 40.8793 24.4472C41.9908 22.783 43.5712 21.4859 45.4201 20.72C47.2692 19.9541 49.3037 19.7535 51.2664 20.1439C53.2294 20.5343 55.0324 21.4978 56.4475 22.9129C57.8628 24.328 58.8266 26.131 59.217 28.0938C59.6076 30.0568 59.4072 32.0913 58.6413 33.9404C57.8754 35.7892 56.5786 37.3696 54.9145 38.4817C53.2505 39.5935 51.2942 40.187 49.2928 40.187C46.6103 40.1843 44.0382 39.1173 42.1414 37.2204C40.2444 35.3236 39.1773 32.7517 39.1743 30.0689L39.1741 30.0689ZM57.6696 73.0804C60.8913 69.5075 62.047 66.3879 61.1062 63.8081C60.7422 62.8136 60.1166 61.9359 59.2954 61.2671C58.4743 60.5984 57.4881 60.1635 56.4405 60.0081C54.168 59.7392 51.9139 60.6397 50.4522 62.4003C50.1548 62.7281 49.7328 62.9149 49.2904 62.9149C48.8477 62.9149 48.4257 62.7281 48.1283 62.4003C46.8512 60.8903 44.9904 59.9965 43.0133 59.9438C42.7212 59.944 42.4291 59.9655 42.1401 60.0082C41.0926 60.1636 40.1062 60.5985 39.2851 61.2672C38.4642 61.9359 37.8386 62.8137 37.4744 63.8081C36.5336 66.3878 37.6894 69.5073 40.9109 73.0805H40.9112C43.4239 75.7367 46.2367 78.0921 49.2927 80.0987C52.3482 78.0931 55.1597 75.7377 57.6695 73.0805L57.6696 73.0804ZM27.4323 62.2799C27.4318 63.4032 27.518 64.5248 27.6901 65.6351C27.7532 66.0475 27.979 66.4175 28.3174 66.6618C30.5053 68.2537 32.8681 69.5901 35.3597 70.6454C38.0253 75.8292 44.1162 80.4659 48.4384 83.2846C48.6924 83.4505 48.9895 83.5388 49.293 83.5388C49.5965 83.5388 49.8936 83.4505 50.1476 83.2846C54.4693 80.4676 60.5614 75.8256 63.2234 70.6454V70.6451C65.7137 69.5875 68.0762 68.2509 70.2657 66.6616C70.602 66.4152 70.8274 66.0463 70.893 65.6348C71.6891 60.4966 70.6287 55.2433 67.9016 50.8161C65.1745 46.3891 60.959 43.0789 56.0124 41.4785C58.5176 40.0043 60.4684 37.7469 61.564 35.0548C62.6597 32.3623 62.8392 29.3843 62.0752 26.5794C61.3113 23.7748 59.6459 21.2992 57.336 19.5347C55.0262 17.77 52.2001 16.8138 49.2931 16.8138C46.3862 16.8138 43.5602 17.77 41.2502 19.5347C38.9404 21.2994 37.275 23.775 36.5111 26.5794C35.747 29.3841 35.9265 32.3622 37.0223 35.0548C38.1179 37.7472 40.0687 40.0046 42.5739 41.4785C38.1777 42.904 34.3455 45.6837 31.6254 49.4199C28.9055 53.1563 27.4379 57.6577 27.4324 62.2792L27.4323 62.2799Z" fill="#BCC0C5"/>
<path fill-rule="evenodd" clip-rule="evenodd" d="M64.5084 66.5733C64.6514 65.2747 64.4916 63.9606 64.0414 62.7342C63.4846 61.2111 62.5268 59.8669 61.2694 58.8428C60.0123 57.8185 58.5018 57.1528 56.8976 56.9158C54.154 56.5368 51.3809 57.3639 49.2936 59.1841C47.2059 57.3639 44.4323 56.5366 41.6885 56.9158C40.0845 57.153 38.5743 57.819 37.3171 58.843C36.0597 59.867 35.1022 61.2113 34.5454 62.7342C34.0924 63.96 33.9324 65.2747 34.0784 66.5733L35.36 70.6466C38.0256 75.8305 44.1165 80.4672 48.4388 83.2858C48.6928 83.4518 48.9899 83.5401 49.2933 83.5401C49.5968 83.5401 49.8939 83.4518 50.1479 83.2858C54.4696 80.4689 60.5618 75.8269 63.2237 70.6466L64.5084 66.5733ZM61.1065 63.8093C62.0473 66.3892 60.8917 69.5087 57.6699 73.0817C55.1601 75.7389 52.3486 78.0943 49.293 80.1C46.237 78.0934 43.424 75.738 40.9113 73.0817C37.6897 69.5085 36.5339 66.389 37.4747 63.8094C37.8389 62.8149 38.4645 61.9372 39.2854 61.2684C40.1066 60.5998 41.093 60.1649 42.1404 60.0095C42.4295 59.9668 42.7215 59.9453 43.0136 59.945C44.9908 59.9977 46.8515 60.8916 48.1286 62.4016C48.426 62.7294 48.848 62.9162 49.2907 62.9162C49.7331 62.9162 50.1552 62.7294 50.4525 62.4016C51.9142 60.641 54.1683 59.7405 56.4408 60.0094C57.4884 60.1648 58.4746 60.5997 59.2957 61.2684C60.1169 61.9371 60.7425 62.8149 61.1065 63.8093Z" fill="#FF929F"/>
</svg>
