<svg width="73" height="73" viewBox="0 0 73 73" fill="none" xmlns="http://www.w3.org/2000/svg">
<rect x="1.25" y="1.25" width="69.6407" height="69.6408" rx="34.8204" fill="black"/>
<rect x="1.25" y="1.25" width="69.6407" height="69.6408" rx="34.8204" stroke="#BCC0C5" stroke-width="2.5"/>
<path fill-rule="evenodd" clip-rule="evenodd" d="M36.0691 19.007C36.5533 19.007 36.9459 19.3996 36.9459 19.8838V25.2796C36.9459 25.7638 36.5533 26.1564 36.0691 26.1564C35.5849 26.1564 35.1923 25.7638 35.1923 25.2796V19.8838C35.1923 19.3996 35.5849 19.007 36.0691 19.007ZM48.1353 24.0049C48.4777 24.3474 48.4777 24.9025 48.1353 25.245L44.3197 29.0606C43.9774 29.4029 43.4224 29.4029 43.0798 29.0606C42.7375 28.718 42.7375 28.163 43.0798 27.8205L46.8953 24.0049C47.2378 23.6625 47.793 23.6625 48.1354 24.0049H48.1353ZM24.0026 24.0049C24.3451 23.6625 24.9002 23.6625 25.2425 24.0049L29.0581 27.8205C29.4005 28.1629 29.4005 28.718 29.0581 29.0606C28.7157 29.4029 28.1605 29.4029 27.8182 29.0606L24.0026 25.245C23.6602 24.9026 23.6602 24.3474 24.0026 24.0049ZM31.3801 24.4665C31.8291 24.2851 32.3403 24.5021 32.5215 24.951L32.794 25.6255C32.9754 26.0746 32.7586 26.5856 32.3096 26.7671C31.8606 26.9485 31.3495 26.7315 31.1681 26.2824L30.8956 25.6079C30.7142 25.159 30.9311 24.6479 31.3801 24.4665ZM40.9592 24.5501C41.4049 24.7394 41.6129 25.2541 41.4236 25.6998L41.1393 26.3695C40.9503 26.8153 40.4355 27.0232 39.9896 26.8341C39.544 26.6448 39.3359 26.1301 39.5252 25.6842L39.8095 25.0147C39.9986 24.5689 40.5133 24.361 40.9592 24.5501ZM36.0688 28.4495C36.553 28.4495 36.9456 28.8421 36.9456 29.3263V31.5746C36.9456 32.0588 36.553 32.4514 36.0688 32.4514C35.5845 32.4514 35.1919 32.0588 35.1919 31.5746V29.3263C35.1919 28.8421 35.5845 28.4495 36.0688 28.4495ZM30.6794 30.6818C31.022 30.3395 31.577 30.3395 31.9195 30.6818L33.5093 32.2717C33.8516 32.614 33.8516 33.1692 33.5093 33.5116C33.1668 33.8539 32.6117 33.8539 32.2692 33.5116L30.6794 31.9218C30.3371 31.5794 30.3371 31.0242 30.6794 30.6818ZM41.4581 30.6818C41.8005 31.0242 41.8005 31.5794 41.4581 31.9218L39.8683 33.5116C39.526 33.8539 38.9709 33.8539 38.6284 33.5116C38.286 33.1692 38.286 32.614 38.6284 32.2717L40.2182 30.6818C40.5605 30.3395 41.1157 30.3395 41.4581 30.6818ZM24.548 31.1807C24.7372 30.7349 25.2519 30.5271 25.6977 30.7162L26.3674 31.0005C26.8131 31.1896 27.021 31.7044 26.8318 32.1502C26.6426 32.5959 26.1279 32.804 25.6821 32.6147L25.0125 32.3304C24.5668 32.1412 24.3587 31.6265 24.548 31.1807ZM47.6737 31.3825C47.8551 31.8315 47.6382 32.3427 47.1894 32.5241L46.5149 32.7965C46.0658 32.9778 45.5548 32.761 45.3734 32.312C45.1919 31.8629 45.4089 31.3519 45.8579 31.1705L46.5323 30.898C46.9813 30.7166 47.4925 30.9334 47.6737 31.3825ZM19.005 36.0711C19.005 35.5869 19.3976 35.1943 19.8818 35.1943H25.2777C25.7619 35.1943 26.1545 35.5869 26.1545 36.0711C26.1545 36.5554 25.7619 36.948 25.2777 36.948H19.8818C19.3976 36.948 19.005 36.5554 19.005 36.0711ZM28.4477 36.0711C28.4477 35.5869 28.8403 35.1943 29.3245 35.1943H31.5726C32.057 35.1943 32.4495 35.5869 32.4495 36.0711C32.4495 36.5554 32.057 36.948 31.5726 36.948H29.3245C28.8403 36.948 28.4477 36.5554 28.4477 36.0711ZM39.689 36.0711C39.689 35.5869 40.0815 35.1943 40.5658 35.1943H42.8141C43.2983 35.1943 43.6909 35.5869 43.6909 36.0711C43.6909 36.5554 43.2983 36.948 42.8141 36.948H40.5658C40.0815 36.948 39.689 36.5554 39.689 36.0711ZM45.9841 36.0711C45.9841 35.5869 46.3767 35.1943 46.861 35.1943H52.2568C52.741 35.1943 53.1336 35.5869 53.1336 36.0711C53.1336 36.5554 52.741 36.948 52.2568 36.948H46.861C46.3767 36.948 45.9841 36.5554 45.9841 36.0711ZM33.5097 38.6306C33.852 38.9729 33.852 39.5282 33.5097 39.8706L31.9199 41.4605C31.5775 41.8028 31.0224 41.8028 30.6798 41.4605C30.3375 41.1179 30.3375 40.5629 30.6798 40.2204L32.2696 38.6306C32.6121 38.2883 33.1672 38.2883 33.5097 38.6306ZM38.6285 38.6306C38.971 38.2883 39.5262 38.2883 39.8685 38.6306L41.4583 40.2204C41.8007 40.5629 41.8007 41.1179 41.4583 41.4605C41.1158 41.8028 40.5606 41.8028 40.2183 41.4605L38.6285 39.8706C38.2861 39.5283 38.2861 38.9729 38.6285 38.6306ZM26.7649 39.8302C26.9463 40.2792 26.7295 40.7904 26.2804 40.9718L25.6059 41.2442C25.157 41.4256 24.6459 41.2087 24.4645 40.7597C24.2831 40.3108 24.5001 39.7996 24.949 39.6182L25.6235 39.3457C26.0726 39.1643 26.5835 39.3813 26.7649 39.8302ZM45.3064 39.9921C45.4957 39.5462 46.0104 39.3383 46.4561 39.5276L47.1257 39.8118C47.5715 40.0011 47.7795 40.5158 47.5904 40.9615C47.4011 41.4074 46.8862 41.6152 46.4407 41.4261L45.771 41.1418C45.3251 40.9525 45.1173 40.4378 45.3064 39.9921ZM36.0691 39.6908C36.5533 39.6908 36.9459 40.0833 36.9459 40.5677V42.8159C36.9459 43.3001 36.5533 43.6927 36.0691 43.6927C35.5849 43.6927 35.1923 43.3001 35.1923 42.8159V40.5677C35.1923 40.0833 35.5849 39.6908 36.0691 39.6908ZM29.0581 43.0819C29.4006 43.4245 29.4006 43.9795 29.0581 44.322L25.2426 48.1376C24.9003 48.4799 24.3451 48.4799 24.0027 48.1376C23.6602 47.7953 23.6602 47.24 24.0027 46.8976L27.8182 43.0821C28.1605 42.7398 28.7157 42.7398 29.0581 43.0821V43.0819ZM43.0797 43.0819C43.4223 42.7396 43.9774 42.7396 44.3197 43.0819L48.1352 46.8975C48.4777 47.2398 48.4777 47.7951 48.1352 48.1374C47.7928 48.4797 47.2376 48.4797 46.8952 48.1374L43.0796 44.3219C42.7373 43.9794 42.7373 43.4244 43.0796 43.0818L43.0797 43.0819ZM32.1482 45.3083C32.5939 45.4976 32.8018 46.0123 32.6127 46.4581L32.3284 47.1275C32.1392 47.5734 31.6245 47.7815 31.1787 47.5922C30.7329 47.403 30.5249 46.8881 30.7142 46.4425L30.9984 45.7728C31.1876 45.327 31.7024 45.1191 32.1482 45.3083ZM39.8282 45.3753C40.2771 45.194 40.7883 45.4109 40.9696 45.8598L41.2422 46.5343C41.4235 46.9832 41.2067 47.4944 40.7577 47.6758C40.3086 47.8571 39.7976 47.6401 39.6162 47.1913L39.3437 46.5169C39.1623 46.0678 39.3791 45.5567 39.8282 45.3753ZM36.0691 45.986C36.5533 45.986 36.9459 46.3786 36.9459 46.8628V52.2587C36.9459 52.7429 36.5533 53.1355 36.0691 53.1355C35.5849 53.1355 35.1923 52.7429 35.1923 52.2587V46.8628C35.1923 46.3786 35.5849 45.986 36.0691 45.986Z" fill="#BCC0C5"/>
</svg>
