<svg width="73" height="73" viewBox="0 0 73 73" fill="none" xmlns="http://www.w3.org/2000/svg">
<rect x="1.74219" y="1.37878" width="69.6407" height="69.6408" rx="34.8204" fill="black"/>
<rect x="1.74219" y="1.37878" width="69.6407" height="69.6408" rx="34.8204" stroke="#BCC0C5" stroke-width="2.5"/>
<path d="M46.782 26.3982C46.145 26.4195 45.5415 26.6883 45.0998 27.1474C40.4128 31.8445 36.833 35.7678 32.4833 40.2075L27.8494 36.2925C27.3528 35.8726 26.7095 35.6677 26.0615 35.7229C25.4137 35.778 24.8142 36.0889 24.3958 36.5865C23.9771 37.0843 23.774 37.7281 23.8309 38.3759C23.8878 39.0237 24.2002 39.6222 24.6991 40.0395L31.0609 45.4227C31.5291 45.817 32.1279 46.0214 32.7392 45.9959C33.3509 45.9706 33.9306 45.7169 34.3642 45.2848C39.6348 40.0029 43.3867 35.7844 48.5562 30.6039C49.0326 30.1435 49.302 29.5101 49.3027 28.8479C49.3037 28.1855 49.0361 27.5513 48.561 27.0896C48.086 26.628 47.444 26.3783 46.782 26.3982Z" fill="#BCC0C5"/>
</svg>
