<svg width="220" height="160" viewBox="0 0 220 160" fill="none" xmlns="http://www.w3.org/2000/svg">
<path d="M220 0H0V10H220V0Z" fill="#ADC8CC"/>
<path d="M220 10H0V20H220V10Z" fill="#ADC8CC"/>
<path d="M190 20H0V30H190V20Z" fill="#ADC8CC"/>
<path d="M200 20H190V30H200V20Z" fill="white"/>
<path d="M220 20H200V30H220V20Z" fill="#ADC8CC"/>
<path d="M190 30H0V40H190V30Z" fill="#ADC8CC"/>
<path d="M200 30H190V40H200V30Z" fill="white"/>
<path d="M220 30H200V40H220V30Z" fill="#ADC8CC"/>
<path d="M190 40H0V50H190V40Z" fill="#ADC8CC"/>
<path d="M200 40H190V50H200V40Z" fill="white"/>
<path d="M220 40H200V50H220V40Z" fill="#ADC8CC"/>
<path d="M10 50H0V60H10V50Z" fill="#ADC8CC"/>
<path d="M190 50H10V60H190V50Z" fill="#962236"/>
<path d="M200 50H190V60H200V50Z" fill="#E9265C"/>
<path d="M210 50H200V60H210V50Z" fill="#962236"/>
<path d="M220 50H210V60H220V50Z" fill="#ADC8CC"/>
<path d="M10 60H0V70H10V60Z" fill="#ADC8CC"/>
<path d="M210 60H10V70H210V60Z" fill="#962236"/>
<path d="M220 60H210V70H220V60Z" fill="#ADC8CC"/>
<path d="M10 70H0V80H10V70Z" fill="#ADC8CC"/>
<path d="M210 70H10V80H210V70Z" fill="#962236"/>
<path d="M220 70H210V80H220V70Z" fill="#ADC8CC"/>
<path d="M10 80H0V90H10V80Z" fill="#ADC8CC"/>
<path d="M210 80H10V90H210V80Z" fill="#962236"/>
<path d="M220 80H210V90H220V80Z" fill="#ADC8CC"/>
<path d="M10 90H0V100H10V90Z" fill="#ADC8CC"/>
<path d="M210 90H10V100H210V90Z" fill="#962236"/>
<path d="M220 90H210V100H220V90Z" fill="#ADC8CC"/>
<path d="M10 100H0V110H10V100Z" fill="#ADC8CC"/>
<path d="M210 100H10V110H210V100Z" fill="#962236"/>
<path d="M220 100H210V110H220V100Z" fill="#ADC8CC"/>
<path d="M20 110H0V120H20V110Z" fill="#ADC8CC"/>
<path d="M200 110H20V120H200V110Z" fill="#962236"/>
<path d="M220 110H200V120H220V110Z" fill="#ADC8CC"/>
<path d="M20 120H10V130H20V120Z" fill="#ADC8CC"/>
<path d="M200 120H20V130H200V120Z" fill="#962236"/>
<path d="M210 120H200V130H210V120Z" fill="#ADC8CC"/>
<path d="M30 130H10V140H30V130Z" fill="#ADC8CC"/>
<path d="M90 130H30V140H90V130Z" fill="#962236"/>
<path d="M130 130H90V140H130V130Z" fill="#E9265C"/>
<path d="M190 130H130V140H190V130Z" fill="#962236"/>
<path d="M210 130H190V140H210V130Z" fill="#ADC8CC"/>
<path d="M50 140H20V150H50V140Z" fill="#ADC8CC"/>
<path d="M170 140H50V150H170V140Z" fill="#962236"/>
<path d="M200 140H170V150H200V140Z" fill="#ADC8CC"/>
<path d="M180 150H40V160H180V150Z" fill="#ADC8CC"/>
</svg>
