<svg width="103" height="30" viewBox="0 0 103 30" fill="none" xmlns="http://www.w3.org/2000/svg">
<rect x="4.22119" y="12.3564" width="2.06851" height="2.06851" rx="1.03426" fill="white"/>
<rect x="4.22119" y="10.0303" width="2.06851" height="2.06851" rx="1.03426" fill="white"/>
<rect x="4.22119" y="7.70215" width="2.06851" height="2.06851" rx="1.03426" fill="white"/>
<rect x="4.29053" y="5.44434" width="2.06851" height="2.06851" rx="1.03426" fill="white"/>
<rect x="6.61719" y="5.44434" width="2.06851" height="2.06851" rx="1.03426" fill="white"/>
<rect x="8.94238" y="5.44434" width="2.06851" height="2.06851" rx="1.03426" fill="white"/>
<rect x="11.1982" y="5.93164" width="2.06851" height="2.06851" rx="1.03426" fill="white"/>
<rect x="12.813" y="7.54785" width="2.06851" height="2.06851" rx="1.03426" fill="white"/>
<rect x="13.2104" y="9.81348" width="2.06851" height="2.06851" rx="1.03426" fill="white"/>
<rect x="12.499" y="11.999" width="2.06851" height="2.06851" rx="1.03426" fill="white"/>
<rect x="10.6147" y="13.29" width="2.06851" height="2.06851" rx="1.03426" fill="white"/>
<rect x="8.30811" y="13.5117" width="2.06851" height="2.06851" rx="1.03426" fill="white"/>
<rect x="5.98145" y="13.5117" width="2.06851" height="2.06851" rx="1.03426" fill="white"/>
<rect x="2.67139" y="25.9072" width="2.06851" height="2.06851" rx="1.03426" fill="white"/>
<rect x="4.17334" y="24.3223" width="2.06851" height="2.06851" rx="1.03426" fill="white"/>
<rect x="4.22119" y="21.998" width="2.06851" height="2.06851" rx="1.03426" fill="white"/>
<rect x="4.22119" y="19.6709" width="2.06851" height="2.06851" rx="1.03426" fill="white"/>
<rect x="4.22119" y="17.3447" width="2.06851" height="2.06851" rx="1.03426" fill="white"/>
<rect x="5.9541" y="16.75" width="2.06851" height="2.06851" rx="1.03426" fill="white"/>
<rect x="8.28125" y="16.75" width="2.06851" height="2.06851" rx="1.03426" fill="white"/>
<rect x="9.74512" y="18.207" width="2.06851" height="2.06851" rx="1.03426" fill="white"/>
<rect x="10.8618" y="20.248" width="2.06851" height="2.06851" rx="1.03426" fill="white"/>
<rect x="11.9785" y="22.29" width="2.06851" height="2.06851" rx="1.03426" fill="white"/>
<rect x="13.0947" y="24.3311" width="2.06851" height="2.06851" rx="1.03426" fill="white"/>
<rect x="14.7036" y="25.9043" width="2.06851" height="2.06851" rx="1.03426" fill="white"/>
<rect x="16.8721" y="25.3613" width="2.06851" height="2.06851" rx="1.03426" fill="white"/>
<rect x="17.2812" y="23.2012" width="2.06851" height="2.06851" rx="1.03426" fill="white"/>
<rect x="16.1621" y="21.1631" width="2.06851" height="2.06851" rx="1.03426" fill="white"/>
<rect x="15.0093" y="19.1406" width="2.06851" height="2.06851" rx="1.03426" fill="white"/>
<rect x="13.8569" y="17.1182" width="2.06851" height="2.06851" rx="1.03426" fill="white"/>
<rect x="14.2036" y="15.5674" width="2.06851" height="2.06851" rx="1.03426" fill="white"/>
<rect x="15.9683" y="14.0684" width="2.06851" height="2.06851" rx="1.03426" fill="white"/>
<rect x="17.0986" y="12.0479" width="2.06851" height="2.06851" rx="1.03426" fill="white"/>
<rect x="17.5308" y="9.76855" width="2.06851" height="2.06851" rx="1.03426" fill="white"/>
<rect x="17.3452" y="7.49609" width="2.06851" height="2.06851" rx="1.03426" fill="white"/>
<rect x="16.4824" y="5.33594" width="2.06851" height="2.06851" rx="1.03426" fill="white"/>
<rect x="14.9082" y="3.62305" width="2.06851" height="2.06851" rx="1.03426" fill="white"/>
<rect x="12.8423" y="2.5498" width="2.06851" height="2.06851" rx="1.03426" fill="white"/>
<rect x="10.5635" y="2.07812" width="2.06851" height="2.06851" rx="1.03426" fill="white"/>
<rect x="8.23779" y="2.02441" width="2.06851" height="2.06851" rx="1.03426" fill="white"/>
<rect x="5.91064" y="2.02441" width="2.06851" height="2.06851" rx="1.03426" fill="white"/>
<rect x="3.5835" y="2.02441" width="2.06851" height="2.06851" rx="1.03426" fill="white"/>
<rect x="1.27344" y="2.15723" width="2.06851" height="2.06851" rx="1.03426" fill="white"/>
<rect x="0.00976562" y="3.94824" width="2.06851" height="2.06851" rx="1.03426" fill="white"/>
<rect y="6.27539" width="2.06851" height="2.06851" rx="1.03426" fill="white"/>
<rect y="8.60254" width="2.06851" height="2.06851" rx="1.03426" fill="white"/>
<rect y="10.9297" width="2.06851" height="2.06851" rx="1.03426" fill="white"/>
<rect y="13.2568" width="2.06851" height="2.06851" rx="1.03426" fill="white"/>
<rect y="15.583" width="2.06851" height="2.06851" rx="1.03426" fill="white"/>
<rect y="17.9111" width="2.06851" height="2.06851" rx="1.03426" fill="white"/>
<rect y="20.2383" width="2.06851" height="2.06851" rx="1.03426" fill="white"/>
<rect y="22.5654" width="2.06851" height="2.06851" rx="1.03426" fill="white"/>
<rect x="0.212891" y="24.8613" width="2.06851" height="2.06851" rx="1.03426" fill="white"/>
<path d="M26.4502 26.1948C24.0918 26.1948 22.5947 24.667 22.5947 22.1548V16.2588C22.5947 15.4077 23.1177 14.9155 23.8662 14.9155C24.6147 14.9155 25.1479 15.4077 25.1479 16.269V21.6421C25.1479 23.2007 25.9067 24.0415 27.3423 24.0415C28.8188 24.0415 29.7314 22.9956 29.7314 21.4165V16.2588C29.7314 15.4077 30.2646 14.9155 31.0132 14.9155C31.7515 14.9155 32.2847 15.4077 32.2847 16.269V24.9131C32.2847 25.7334 31.7925 26.2051 31.0645 26.2051C30.3262 26.2051 29.8237 25.7334 29.8237 24.9131V24.1133H29.7725C29.1982 25.436 28.1011 26.1948 26.4502 26.1948ZM35.6479 29.8657C34.8994 29.8657 34.3765 29.3838 34.3765 28.5225V16.228C34.3765 15.3872 34.8892 14.9155 35.6172 14.9155C36.3452 14.9155 36.8682 15.3872 36.8682 16.228V17.0073H36.9194C37.5347 15.7461 38.7651 14.9463 40.3442 14.9463C43.1025 14.9463 44.856 17.0894 44.856 20.5654C44.856 24.0312 43.1128 26.1743 40.3853 26.1743C38.8062 26.1743 37.5757 25.4155 36.981 24.1953H36.9297V28.5225C36.9297 29.3838 36.3965 29.8657 35.6479 29.8657ZM39.5649 24.0825C41.2158 24.0825 42.2412 22.7188 42.2412 20.5654C42.2412 18.4224 41.2158 17.0483 39.5649 17.0483C37.9756 17.0483 36.9194 18.4531 36.9092 20.5654C36.9194 22.6982 37.9756 24.0825 39.5649 24.0825ZM49.6855 26.1743C47.5835 26.1743 46.0557 24.8516 46.0557 22.8931C46.0557 20.9653 47.5425 19.8066 50.188 19.6426L53.0693 19.4785V18.6992C53.0693 17.561 52.3003 16.9048 51.0391 16.9048C50.0444 16.9048 49.3984 17.2432 48.7627 18.1763C48.4961 18.5249 48.1577 18.689 47.7271 18.689C47.1016 18.689 46.6504 18.2788 46.6504 17.6636C46.6504 17.4277 46.7119 17.2021 46.8247 16.9663C47.3784 15.7051 49.0601 14.9053 51.1416 14.9053C53.8384 14.9053 55.5918 16.3306 55.5918 18.5146V24.9233C55.5918 25.7437 55.0688 26.2051 54.3511 26.2051C53.6538 26.2051 53.1719 25.7847 53.1309 25.0259V24.2671H53.0796C52.4541 25.4463 51.0903 26.1743 49.6855 26.1743ZM50.4648 24.2466C51.9004 24.2466 53.0693 23.2827 53.0693 21.9702V21.1396L50.5469 21.2935C49.3164 21.3755 48.6089 21.9292 48.6089 22.7905C48.6089 23.6826 49.3574 24.2466 50.4648 24.2466ZM58.9653 26.2051C58.2271 26.2051 57.7246 25.7539 57.7246 24.9233V12.3418C57.7246 11.4805 58.2578 10.9985 59.0063 10.9985C59.7549 10.9985 60.2778 11.4805 60.2778 12.3418V16.9971H60.3394C60.9648 15.7256 62.1953 14.9463 63.7437 14.9463C66.4814 14.9463 68.2246 17.0894 68.2246 20.5654C68.2246 24.0415 66.4917 26.1743 63.7334 26.1743C62.144 26.1743 60.9238 25.4053 60.2778 24.144H60.2266V24.9233C60.2266 25.7437 59.7036 26.2051 58.9653 26.2051ZM62.9541 24.0825C64.5845 24.0825 65.6099 22.729 65.6099 20.5654C65.6099 18.4121 64.5845 17.0483 62.9541 17.0483C61.375 17.0483 60.2676 18.4531 60.2676 20.5654C60.2676 22.6982 61.375 24.0825 62.9541 24.0825ZM73.0645 26.1743C70.9624 26.1743 69.4346 24.8516 69.4346 22.8931C69.4346 20.9653 70.9214 19.8066 73.5669 19.6426L76.4482 19.4785V18.6992C76.4482 17.561 75.6792 16.9048 74.418 16.9048C73.4233 16.9048 72.7773 17.2432 72.1416 18.1763C71.875 18.5249 71.5366 18.689 71.106 18.689C70.4805 18.689 70.0293 18.2788 70.0293 17.6636C70.0293 17.4277 70.0908 17.2021 70.2036 16.9663C70.7573 15.7051 72.439 14.9053 74.5205 14.9053C77.2173 14.9053 78.9707 16.3306 78.9707 18.5146V24.9233C78.9707 25.7437 78.4478 26.2051 77.73 26.2051C77.0327 26.2051 76.5508 25.7847 76.5098 25.0259V24.2671H76.4585C75.833 25.4463 74.4692 26.1743 73.0645 26.1743ZM73.8438 24.2466C75.2793 24.2466 76.4482 23.2827 76.4482 21.9702V21.1396L73.9258 21.2935C72.6953 21.3755 71.9878 21.9292 71.9878 22.7905C71.9878 23.6826 72.7363 24.2466 73.8438 24.2466ZM85.2256 26.2153C82.9287 26.2153 81.3188 25.3335 80.7959 24.0312C80.7241 23.8467 80.6934 23.6826 80.6934 23.5288C80.6934 22.9136 81.1445 22.5239 81.7598 22.5239C82.1802 22.5239 82.5391 22.7188 82.8672 23.1494C83.4414 23.98 84.0977 24.3491 85.3179 24.3491C86.5073 24.3491 87.2969 23.8467 87.2969 23.0264C87.2969 22.3701 86.8867 22.0112 85.769 21.7549L84.0054 21.355C81.8828 20.873 80.8369 19.8271 80.8369 18.248C80.8369 16.228 82.5801 14.9053 85.2666 14.9053C87.3584 14.9053 88.9785 15.9307 89.3169 17.1816C89.3477 17.3149 89.3682 17.438 89.3682 17.561C89.3682 18.0942 89.0298 18.4736 88.3838 18.4736C88.0146 18.4736 87.6455 18.3403 87.4097 18.002C86.9072 17.2534 86.2817 16.7817 85.2051 16.7817C84.0874 16.7817 83.3184 17.3252 83.3184 18.1045C83.3184 18.7402 83.79 19.1709 84.918 19.4272L86.6509 19.8066C88.9478 20.3296 89.8604 21.1602 89.8604 22.77C89.8604 24.8516 87.9941 26.2153 85.2256 26.2153ZM96.2998 26.2153C92.9775 26.2153 91.019 24.1338 91.019 20.6064C91.019 17.1406 93.0186 14.9053 96.1562 14.9053C99.1299 14.9053 101.16 17.0176 101.16 19.9707C101.16 20.7295 100.729 21.1807 99.9707 21.1807H93.562V21.2627C93.562 23.0776 94.6182 24.2466 96.2793 24.2466C97.4277 24.2466 98.1763 23.8467 98.9966 22.8008C99.2632 22.5034 99.499 22.3906 99.8579 22.3906C100.432 22.3906 100.883 22.7598 100.883 23.375C100.883 23.5698 100.822 23.7954 100.709 24.021C99.9912 25.4053 98.3711 26.2153 96.2998 26.2153ZM93.5825 19.499H98.6582C98.6069 17.9199 97.6021 16.8843 96.1665 16.8843C94.731 16.8843 93.6851 17.9404 93.5825 19.499Z" fill="white"/>
</svg>
