<svg width="108" height="48" viewBox="0 0 108 48" fill="none" xmlns="http://www.w3.org/2000/svg">
<rect x="5.44189" y="20.5928" width="2.66667" height="2.66667" rx="1.33333" fill="#FF638D"/>
<rect x="5.44189" y="17.5928" width="2.66667" height="2.66667" rx="1.33333" fill="#FF638D"/>
<rect x="5.44189" y="14.5928" width="2.66667" height="2.66667" rx="1.33333" fill="#FF638D"/>
<rect x="5.53125" y="11.6816" width="2.66667" height="2.66667" rx="1.33333" fill="#FF638D"/>
<rect x="8.53125" y="11.6816" width="2.66667" height="2.66667" rx="1.33333" fill="#FF638D"/>
<rect x="11.5288" y="11.6816" width="2.66667" height="2.66667" rx="1.33333" fill="#FF638D"/>
<rect x="14.4365" y="12.3096" width="2.66667" height="2.66667" rx="1.33333" fill="#FF638D"/>
<rect x="16.5186" y="14.3936" width="2.66667" height="2.66667" rx="1.33333" fill="#FF638D"/>
<rect x="17.0308" y="17.3145" width="2.66667" height="2.66667" rx="1.33333" fill="#FF638D"/>
<rect x="16.1138" y="20.1309" width="2.66667" height="2.66667" rx="1.33333" fill="#FF638D"/>
<rect x="13.6846" y="21.7959" width="2.66667" height="2.66667" rx="1.33333" fill="#FF638D"/>
<rect x="10.7109" y="22.0811" width="2.66667" height="2.66667" rx="1.33333" fill="#FF638D"/>
<rect x="7.71094" y="22.0811" width="2.66667" height="2.66667" rx="1.33333" fill="#FF638D"/>
<rect x="3.44385" y="38.0615" width="2.66667" height="2.66667" rx="1.33333" fill="#FF638D"/>
<rect x="5.37988" y="36.0186" width="2.66667" height="2.66667" rx="1.33333" fill="#FF638D"/>
<rect x="5.44189" y="33.0225" width="2.66667" height="2.66667" rx="1.33333" fill="#FF638D"/>
<rect x="5.44189" y="30.0225" width="2.66667" height="2.66667" rx="1.33333" fill="#FF638D"/>
<rect x="5.44189" y="27.0225" width="2.66667" height="2.66667" rx="1.33333" fill="#FF638D"/>
<rect x="7.67627" y="26.2568" width="2.66667" height="2.66667" rx="1.33333" fill="#FF638D"/>
<rect x="10.6763" y="26.2568" width="2.66667" height="2.66667" rx="1.33333" fill="#FF638D"/>
<rect x="12.5635" y="28.1348" width="2.66667" height="2.66667" rx="1.33333" fill="#FF638D"/>
<rect x="14.0029" y="30.7666" width="2.66667" height="2.66667" rx="1.33333" fill="#FF638D"/>
<rect x="15.4424" y="33.3984" width="2.66667" height="2.66667" rx="1.33333" fill="#FF638D"/>
<rect x="16.8813" y="36.0303" width="2.66667" height="2.66667" rx="1.33333" fill="#FF638D"/>
<rect x="18.9556" y="38.0576" width="2.66667" height="2.66667" rx="1.33333" fill="#FF638D"/>
<rect x="21.751" y="37.3584" width="2.66667" height="2.66667" rx="1.33333" fill="#FF638D"/>
<rect x="22.2783" y="34.5732" width="2.66667" height="2.66667" rx="1.33333" fill="#FF638D"/>
<rect x="20.8359" y="31.9453" width="2.66667" height="2.66667" rx="1.33333" fill="#FF638D"/>
<rect x="19.3496" y="29.3389" width="2.66667" height="2.66667" rx="1.33333" fill="#FF638D"/>
<rect x="17.8643" y="26.7314" width="2.66667" height="2.66667" rx="1.33333" fill="#FF638D"/>
<rect x="18.311" y="24.7314" width="2.66667" height="2.66667" rx="1.33333" fill="#FF638D"/>
<rect x="20.5859" y="22.7998" width="2.66667" height="2.66667" rx="1.33333" fill="#FF638D"/>
<rect x="22.043" y="20.1943" width="2.66667" height="2.66667" rx="1.33333" fill="#FF638D"/>
<rect x="22.6006" y="17.2568" width="2.66667" height="2.66667" rx="1.33333" fill="#FF638D"/>
<rect x="22.3613" y="14.3271" width="2.66667" height="2.66667" rx="1.33333" fill="#FF638D"/>
<rect x="21.249" y="11.542" width="2.66667" height="2.66667" rx="1.33333" fill="#FF638D"/>
<rect x="19.2192" y="9.33301" width="2.66667" height="2.66667" rx="1.33333" fill="#FF638D"/>
<rect x="16.5562" y="7.9502" width="2.66667" height="2.66667" rx="1.33333" fill="#FF638D"/>
<rect x="13.6182" y="7.3418" width="2.66667" height="2.66667" rx="1.33333" fill="#FF638D"/>
<rect x="10.6201" y="7.27246" width="2.66667" height="2.66667" rx="1.33333" fill="#FF638D"/>
<rect x="7.62012" y="7.27246" width="2.66667" height="2.66667" rx="1.33333" fill="#FF638D"/>
<rect x="4.62012" y="7.27246" width="2.66667" height="2.66667" rx="1.33333" fill="#FF638D"/>
<rect x="1.6416" y="7.44434" width="2.66667" height="2.66667" rx="1.33333" fill="#FF638D"/>
<rect x="0.0126953" y="9.75293" width="2.66667" height="2.66667" rx="1.33333" fill="#FF638D"/>
<rect y="12.7529" width="2.66667" height="2.66667" rx="1.33333" fill="#FF638D"/>
<rect y="15.7529" width="2.66667" height="2.66667" rx="1.33333" fill="#FF638D"/>
<rect y="18.7529" width="2.66667" height="2.66667" rx="1.33333" fill="#FF638D"/>
<rect y="21.7529" width="2.66667" height="2.66667" rx="1.33333" fill="#FF638D"/>
<rect y="24.7529" width="2.66667" height="2.66667" rx="1.33333" fill="#FF638D"/>
<rect y="27.7529" width="2.66667" height="2.66667" rx="1.33333" fill="#FF638D"/>
<rect y="30.7529" width="2.66667" height="2.66667" rx="1.33333" fill="#FF638D"/>
<rect y="33.7529" width="2.66667" height="2.66667" rx="1.33333" fill="#FF638D"/>
<rect x="0.274414" y="36.7129" width="2.66667" height="2.66667" rx="1.33333" fill="#FF638D"/>
<path d="M31.8501 31.1948C29.4917 31.1948 27.9946 29.667 27.9946 27.1548V21.2588C27.9946 20.4077 28.5176 19.9155 29.2661 19.9155C30.0146 19.9155 30.5479 20.4077 30.5479 21.269V26.6421C30.5479 28.2007 31.3066 29.0415 32.7422 29.0415C34.2188 29.0415 35.1313 27.9956 35.1313 26.4165V21.2588C35.1313 20.4077 35.6646 19.9155 36.4131 19.9155C37.1514 19.9155 37.6846 20.4077 37.6846 21.269V29.9131C37.6846 30.7334 37.1924 31.2051 36.4644 31.2051C35.7261 31.2051 35.2236 30.7334 35.2236 29.9131V29.1133H35.1724C34.5981 30.436 33.501 31.1948 31.8501 31.1948ZM41.0479 34.8657C40.2993 34.8657 39.7764 34.3838 39.7764 33.5225V21.228C39.7764 20.3872 40.2891 19.9155 41.0171 19.9155C41.7451 19.9155 42.2681 20.3872 42.2681 21.228V22.0073H42.3193C42.9346 20.7461 44.165 19.9463 45.7441 19.9463C48.5024 19.9463 50.2559 22.0894 50.2559 25.5654C50.2559 29.0312 48.5127 31.1743 45.7852 31.1743C44.2061 31.1743 42.9756 30.4155 42.3809 29.1953H42.3296V33.5225C42.3296 34.3838 41.7964 34.8657 41.0479 34.8657ZM44.9648 29.0825C46.6157 29.0825 47.6411 27.7188 47.6411 25.5654C47.6411 23.4224 46.6157 22.0483 44.9648 22.0483C43.3755 22.0483 42.3193 23.4531 42.3091 25.5654C42.3193 27.6982 43.3755 29.0825 44.9648 29.0825ZM55.0854 31.1743C52.9834 31.1743 51.4556 29.8516 51.4556 27.8931C51.4556 25.9653 52.9424 24.8066 55.5879 24.6426L58.4692 24.4785V23.6992C58.4692 22.561 57.7002 21.9048 56.439 21.9048C55.4443 21.9048 54.7983 22.2432 54.1626 23.1763C53.896 23.5249 53.5576 23.689 53.127 23.689C52.5015 23.689 52.0503 23.2788 52.0503 22.6636C52.0503 22.4277 52.1118 22.2021 52.2246 21.9663C52.7783 20.7051 54.46 19.9053 56.5415 19.9053C59.2383 19.9053 60.9917 21.3306 60.9917 23.5146V29.9233C60.9917 30.7437 60.4688 31.2051 59.751 31.2051C59.0537 31.2051 58.5718 30.7847 58.5308 30.0259V29.2671H58.4795C57.854 30.4463 56.4902 31.1743 55.0854 31.1743ZM55.8647 29.2466C57.3003 29.2466 58.4692 28.2827 58.4692 26.9702V26.1396L55.9468 26.2935C54.7163 26.3755 54.0088 26.9292 54.0088 27.7905C54.0088 28.6826 54.7573 29.2466 55.8647 29.2466ZM64.3652 31.2051C63.627 31.2051 63.1245 30.7539 63.1245 29.9233V17.3418C63.1245 16.4805 63.6577 15.9985 64.4062 15.9985C65.1548 15.9985 65.6777 16.4805 65.6777 17.3418V21.9971H65.7393C66.3647 20.7256 67.5952 19.9463 69.1436 19.9463C71.8813 19.9463 73.6245 22.0894 73.6245 25.5654C73.6245 29.0415 71.8916 31.1743 69.1333 31.1743C67.5439 31.1743 66.3237 30.4053 65.6777 29.144H65.6265V29.9233C65.6265 30.7437 65.1035 31.2051 64.3652 31.2051ZM68.354 29.0825C69.9844 29.0825 71.0098 27.729 71.0098 25.5654C71.0098 23.4121 69.9844 22.0483 68.354 22.0483C66.7749 22.0483 65.6675 23.4531 65.6675 25.5654C65.6675 27.6982 66.7749 29.0825 68.354 29.0825ZM78.4644 31.1743C76.3623 31.1743 74.8345 29.8516 74.8345 27.8931C74.8345 25.9653 76.3213 24.8066 78.9668 24.6426L81.8481 24.4785V23.6992C81.8481 22.561 81.0791 21.9048 79.8179 21.9048C78.8232 21.9048 78.1772 22.2432 77.5415 23.1763C77.2749 23.5249 76.9365 23.689 76.5059 23.689C75.8804 23.689 75.4292 23.2788 75.4292 22.6636C75.4292 22.4277 75.4907 22.2021 75.6035 21.9663C76.1572 20.7051 77.8389 19.9053 79.9204 19.9053C82.6172 19.9053 84.3706 21.3306 84.3706 23.5146V29.9233C84.3706 30.7437 83.8477 31.2051 83.1299 31.2051C82.4326 31.2051 81.9507 30.7847 81.9097 30.0259V29.2671H81.8584C81.2329 30.4463 79.8691 31.1743 78.4644 31.1743ZM79.2437 29.2466C80.6792 29.2466 81.8481 28.2827 81.8481 26.9702V26.1396L79.3257 26.2935C78.0952 26.3755 77.3877 26.9292 77.3877 27.7905C77.3877 28.6826 78.1362 29.2466 79.2437 29.2466ZM90.6255 31.2153C88.3286 31.2153 86.7188 30.3335 86.1958 29.0312C86.124 28.8467 86.0933 28.6826 86.0933 28.5288C86.0933 27.9136 86.5444 27.5239 87.1597 27.5239C87.5801 27.5239 87.939 27.7188 88.2671 28.1494C88.8413 28.98 89.4976 29.3491 90.7178 29.3491C91.9072 29.3491 92.6968 28.8467 92.6968 28.0264C92.6968 27.3701 92.2866 27.0112 91.1689 26.7549L89.4053 26.355C87.2827 25.873 86.2368 24.8271 86.2368 23.248C86.2368 21.228 87.98 19.9053 90.6665 19.9053C92.7583 19.9053 94.3784 20.9307 94.7168 22.1816C94.7476 22.3149 94.7681 22.438 94.7681 22.561C94.7681 23.0942 94.4297 23.4736 93.7837 23.4736C93.4146 23.4736 93.0454 23.3403 92.8096 23.002C92.3071 22.2534 91.6816 21.7817 90.605 21.7817C89.4873 21.7817 88.7183 22.3252 88.7183 23.1045C88.7183 23.7402 89.1899 24.1709 90.3179 24.4272L92.0508 24.8066C94.3477 25.3296 95.2603 26.1602 95.2603 27.77C95.2603 29.8516 93.394 31.2153 90.6255 31.2153ZM101.7 31.2153C98.3774 31.2153 96.4189 29.1338 96.4189 25.6064C96.4189 22.1406 98.4185 19.9053 101.556 19.9053C104.53 19.9053 106.56 22.0176 106.56 24.9707C106.56 25.7295 106.129 26.1807 105.371 26.1807H98.9619V26.2627C98.9619 28.0776 100.018 29.2466 101.679 29.2466C102.828 29.2466 103.576 28.8467 104.396 27.8008C104.663 27.5034 104.899 27.3906 105.258 27.3906C105.832 27.3906 106.283 27.7598 106.283 28.375C106.283 28.5698 106.222 28.7954 106.109 29.021C105.391 30.4053 103.771 31.2153 101.7 31.2153ZM98.9824 24.499H104.058C104.007 22.9199 103.002 21.8843 101.566 21.8843C100.131 21.8843 99.085 22.9404 98.9824 24.499Z" fill="white"/>
</svg>
